<svg xmlns="http://www.w3.org/2000/svg" width="179" height="106" viewBox="0 0 179 106">
  <defs>
    <style>
      .cls-1 {
        fill: #fff;
        fill-rule: evenodd;
      }
    </style>
  </defs>
  <path id="Shape" class="cls-1" d="M323.205,907.592A4.4,4.4,0,1,1,327.6,912,4.4,4.4,0,0,1,323.205,907.592Zm-42.551,0a4.4,4.4,0,1,1,4.4,4.406A4.4,4.4,0,0,1,280.654,907.592Zm-42.551,0A4.4,4.4,0,1,1,242.5,912,4.4,4.4,0,0,1,238.1,907.592Zm-42.552,0a4.4,4.4,0,1,1,4.4,4.406A4.4,4.4,0,0,1,195.551,907.592Zm-42.551,0A4.4,4.4,0,1,1,157.4,912,4.4,4.4,0,0,1,153,907.592ZM323.205,875.2a4.4,4.4,0,1,1,4.4,4.406A4.4,4.4,0,0,1,323.205,875.2Zm-42.551,0a4.4,4.4,0,1,1,4.4,4.406A4.4,4.4,0,0,1,280.654,875.2Zm-42.551,0a4.4,4.4,0,1,1,4.4,4.406A4.4,4.4,0,0,1,238.1,875.2Zm-42.552,0a4.4,4.4,0,1,1,4.4,4.406A4.4,4.4,0,0,1,195.551,875.2ZM153,875.2a4.4,4.4,0,1,1,4.4,4.406A4.4,4.4,0,0,1,153,875.2Zm170.205-32.4a4.4,4.4,0,1,1,4.4,4.406A4.4,4.4,0,0,1,323.205,842.8Zm-42.551,0a4.4,4.4,0,1,1,4.4,4.406A4.4,4.4,0,0,1,280.654,842.8Zm-42.551,0a4.4,4.4,0,1,1,4.4,4.406A4.4,4.4,0,0,1,238.1,842.8Zm-42.552,0a4.4,4.4,0,1,1,4.4,4.406A4.4,4.4,0,0,1,195.551,842.8ZM153,842.8a4.4,4.4,0,1,1,4.4,4.406A4.4,4.4,0,0,1,153,842.8Zm170.205-32.4a4.4,4.4,0,1,1,4.4,4.406A4.4,4.4,0,0,1,323.205,810.405Zm-42.551,0a4.4,4.4,0,1,1,4.4,4.406A4.4,4.4,0,0,1,280.654,810.405Zm-42.551,0a4.4,4.4,0,1,1,4.4,4.406A4.4,4.4,0,0,1,238.1,810.405Zm-42.552,0a4.4,4.4,0,1,1,4.4,4.406A4.4,4.4,0,0,1,195.551,810.405Zm-42.551,0a4.4,4.4,0,1,1,4.4,4.406A4.4,4.4,0,0,1,153,810.405Z" transform="translate(-153 -806)"/>
</svg>
